 <svg version="1.0" xmlns="http://www.w3.org/2000/svg" width="700.000000pt" height="807.000000pt" viewBox="0 0 700.000000 807.000000" preserveAspectRatio="xMidYMid meet">
<g transform="translate(0.000000,807.000000) scale(0.100000,-0.100000)" fill="#193441" stroke="none">
<path d="M3230 7939 c-107 -61 -229 -129 -270 -151 -41 -23 -156 -87 -255
-143 -437 -248 -995 -564 -1050 -595 -33 -18 -82 -45 -110 -60 -27 -15 -302
-170 -610 -345 -538 -306 -682 -386 -752 -422 -18 -9 -33 -20 -33 -25 0 -4 35
-28 78 -54 42 -25 109 -66 147 -89 39 -24 97 -60 130 -80 145 -87 306 -185
423 -257 28 -18 116 -72 195 -119 78 -48 201 -122 272 -166 72 -44 164 -100
205 -125 41 -25 113 -69 160 -98 120 -74 353 -216 430 -262 36 -21 124 -75
195 -119 72 -44 164 -100 205 -125 41 -25 140 -85 220 -134 80 -49 172 -106
205 -125 33 -20 98 -59 145 -88 295 -182 310 -190 322 -179 7 6 144 85 303
177 295 170 640 370 1160 670 160 93 421 243 580 335 160 92 367 212 460 267
94 54 220 127 280 162 405 231 689 398 692 406 2 6 -48 36 -109 68 -62 32
-149 77 -193 100 -44 24 -156 83 -250 131 -93 49 -201 106 -240 126 -38 21
-119 63 -180 95 -60 32 -153 80 -205 108 -173 91 -294 154 -405 212 -116 61
-247 130 -380 200 -44 23 -134 71 -200 105 -66 34 -156 82 -200 105 -44 23
-129 68 -190 100 -60 32 -153 80 -205 108 -89 46 -176 92 -395 207 -49 26
-151 79 -226 119 -75 39 -140 71 -145 71 -5 0 -97 -50 -204 -111z"></path>
<path d="M12 3963 l3 -1966 120 -73 c66 -40 134 -82 150 -92 17 -11 146 -88
287 -173 142 -85 304 -182 360 -216 57 -34 132 -78 168 -99 36 -21 88 -52 115
-70 28 -17 244 -148 482 -290 238 -143 467 -280 510 -306 43 -26 85 -51 93
-55 17 -8 133 -77 175 -104 17 -11 206 -125 420 -253 l390 -233 3 1966 2 1966
-21 17 c-11 10 -53 36 -92 58 -40 23 -118 69 -175 103 -56 34 -173 104 -260
156 -86 52 -178 107 -204 124 -26 16 -79 48 -118 71 -116 67 -531 316 -585
350 -27 18 -79 49 -115 70 -36 21 -112 66 -170 101 -58 35 -148 89 -200 120
-52 31 -134 79 -181 108 -47 29 -119 72 -160 96 -41 24 -90 54 -109 66 -19 12
-177 107 -350 210 -173 103 -331 198 -350 210 -61 39 -176 105 -183 105 -4 0
-6 -885 -5 -1967z m1875 -930 c-3 -829 -4 -839 -53 -936 -26 -50 -81 -114
-127 -146 -84 -57 -275 -89 -366 -60 -88 28 -81 17 -81 133 0 58 4 107 9 110
5 3 42 -2 84 -11 64 -14 82 -14 122 -3 61 17 92 43 119 99 21 46 21 52 24 819
l3 772 135 0 135 0 -4 -777z"></path>
<path d="M6922 5914 c-12 -8 -127 -78 -255 -154 -128 -76 -257 -154 -287 -173
-30 -19 -126 -76 -212 -128 -87 -52 -195 -116 -241 -144 -46 -27 -117 -70
-158 -94 -41 -24 -101 -60 -134 -81 -33 -20 -202 -122 -375 -225 -173 -103
-331 -197 -350 -210 -19 -12 -106 -65 -192 -116 -87 -52 -195 -116 -241 -144
-46 -27 -117 -70 -158 -94 -41 -24 -99 -59 -129 -78 -76 -47 -372 -225 -447
-268 l-63 -36 0 -1970 0 -1970 23 12 c18 10 1118 668 1247 746 39 24 185 112
212 128 127 74 542 323 568 340 19 13 177 107 350 210 173 104 338 202 365
220 28 18 79 49 115 69 36 21 142 84 235 140 l170 102 3 1967 c2 1593 0 1967
-11 1967 -7 0 -23 -7 -35 -16z m-1879 -2789 c192 -571 237 -711 260 -813 l13
-57 18 70 c28 110 64 228 117 385 27 80 111 330 186 555 76 226 142 413 148
417 5 4 77 8 158 8 114 0 149 -3 153 -13 3 -8 -18 -79 -46 -158 -54 -149 -109
-307 -181 -514 -22 -66 -68 -196 -101 -290 -33 -93 -80 -228 -105 -300 -25
-71 -51 -146 -58 -165 -29 -76 -105 -297 -111 -322 l-6 -28 -168 0 -167 0 -26
73 c-14 39 -46 133 -72 207 -26 74 -51 144 -56 155 -4 11 -22 63 -39 115 -17
52 -36 104 -41 115 -5 11 -17 47 -28 80 -10 33 -47 139 -81 235 -82 235 -126
360 -203 582 -36 103 -68 191 -72 197 -16 27 11 31 163 29 l157 -3 188 -560z"></path>
</g>
</svg>